# xmcd CD database file
#
# Track frame offsets:
#	183
#	11463
#	23983
#	33710
#	48483
#	58688
#	73235
#	90050
#	99728
#	114540
#	128628
#	141608
#	157553
#	168075
#
# Disc length: 2389 seconds
#
# Revision: 0
# Processed by: cddbd v1.5.1PL2 Copyright (c) Steve Scherf et al.
# Submitted via: CDex 1.51
#
DISCID=b309530e
DTITLE=Ralf Paulsen - Goodbye Highway's
DYEAR=1900
DGENRE=Country
TTITLE0=Goodbye Highways
TTITLE1=Ich bin ein Tramp
TTITLE2=Bonanza
TTITLE3=Ich möcht so gern nach Nashville,Tennessee
TTITLE4=Ich bin ein Mann der Strasse
TTITLE5=Kommt ein Cowboy in die Jahre
TTITLE6=Mein guter alter Freund
TTITLE7=Jeder Kilometer
TTITLE8=Ein Herz für Cowboys
TTITLE9=Räder, die nicht rollen
TTITLE10=Liebe heisst den Truck zu teilen
TTITLE11=Du bist noch längst nicht out
TTITLE12=Geisterreiter
TTITLE13=In Berlin, da habe ich früher mal gewohnt
EXTD=
EXTT0=
EXTT1=
EXTT2=
EXTT3=
EXTT4=
EXTT5=
EXTT6=
EXTT7=
EXTT8=
EXTT9=
EXTT10=
EXTT11=
EXTT12=
EXTT13=
PLAYORDER=
